PathFileType  4	(X/Y/Z) C:\Users\antoi\Documents\MyRepositories\mobilecap\ResultsAnalysis
DataRate	CameraRate	NumFrames	NumMarkers	Units	OrigDataRate	OrigDataStartFrame	OrigNumFrames
100.0	100.0	5	51	mm	100.0	91	242
Frame#	Time	r_knee			r_shank_antsup			r_ankle			r_calc			r_5meta			r_toe			L_knee			L_shank_antsup			L_ankle			L_calc			L_5meta			L_toe			r_sh2			r_sh3			r_sh4			L_sh2			L_sh3			r_thigh1			r_thigh2			r_thigh3			r_thigh4			r_thigh5			L_thigh1			L_thigh2			L_thigh3			L_thigh4			r.ASIS			r.PSIS			L.ASIS			L.PSIS			C7			R_Shoulder			L_Shoulder			R_Sternum			L_Sternum			R_humerus			R_elbow_med			R_elbow_lat			R_forearm			R_wrist_radius			R_wrist_ulna			L_humerus			L_elbow_med			L_elbow_lat			L_forearm			L_wrist_radius			L_wrist_ulna			R_HJC			L_HJC			R_HJC_reg			L_HJC_reg			
		X1	Y1	Z1	X2	Y2	Z2	X3	Y3	Z3	X4	Y4	Z4	X5	Y5	Z5	X6	Y6	Z6	X7	Y7	Z7	X8	Y8	Z8	X9	Y9	Z9	X10	Y10	Z10	X11	Y11	Z11	X12	Y12	Z12	X13	Y13	Z13	X14	Y14	Z14	X15	Y15	Z15	X16	Y16	Z16	X17	Y17	Z17	X18	Y18	Z18	X19	Y19	Z19	X20	Y20	Z20	X21	Y21	Z21	X22	Y22	Z22	X23	Y23	Z23	X24	Y24	Z24	X25	Y25	Z25	X26	Y26	Z26	X27	Y27	Z27	X28	Y28	Z28	X29	Y29	Z29	X30	Y30	Z30	X31	Y31	Z31	X32	Y32	Z32	X33	Y33	Z33	X34	Y34	Z34	X35	Y35	Z35	X36	Y36	Z36	X37	Y37	Z37	X38	Y38	Z38	X39	Y39	Z39	X40	Y40	Z40	X41	Y41	Z41	X42	Y42	Z42	X43	Y43	Z43	X44	Y44	Z44	X45	Y45	Z45	X46	Y46	Z46	X47	Y47	Z47	X48	Y48	Z48	X49	Y49	Z49	X50	Y50	Z50	X51	Y51	Z51	

91	0.90000000	-872.09954	806.24608	-451.61080	-894.74680	706.17229	-455.06801	-1160.59004	518.30391	-465.21074	-1222.19768	541.55071	-522.32810	-1132.59697	388.74245	-426.58699	-1079.74189	386.54093	-471.18609	-932.51584	806.98948	-736.65220	-936.53269	707.77336	-725.34444	-1188.43004	483.85048	-719.36837	-1271.08567	494.84679	-669.80410	-1148.07743	364.18490	-748.32705	-1093.87484	362.19313	-693.95069	-973.84344	624.02625	-457.79294	-942.47906	751.71552	-416.74227	-1023.92435	674.27663	-414.64751	-992.25622	767.18002	-764.51150	-1072.60809	674.87561	-766.62032	-845.18004	1086.29869	-418.84964	-824.18610	978.72724	-437.78287	-867.56347	938.68801	-405.47394	-952.60695	1056.92600	-393.71881	-922.68870	946.39674	-416.09383	-851.42521	1052.09760	-746.27785	-843.95083	912.68103	-729.83066	-957.31397	1044.13896	-777.25430	-950.28633	912.25423	-753.31766	-831.87202	1261.65795	-455.85021	-1022.25279	1338.63011	-535.14154	-829.01829	1264.82944	-704.14059	-1015.74546	1340.34376	-632.60104	-880.86686	1770.49765	-563.73917	-813.97214	1759.45902	-425.23231	-799.17550	1746.57188	-686.06971	-767.53153	1680.29666	-530.47940	-765.08077	1681.39005	-576.61138	-716.93032	1713.24393	-371.32918	-613.10565	1524.42820	-312.57056	-603.71841	1573.84910	-259.36571	-550.09076	1634.83686	-306.41225	-453.65186	1689.72784	-430.14079	-421.18137	1672.07314	-396.76125	-702.26783	1710.36393	-739.18897	-574.84082	1546.17484	-773.86027	-563.17653	1608.93267	-826.84995	-521.85618	1656.18391	-783.75227	-418.80965	1714.06609	-656.97576	-388.37702	1710.39763	-698.24032	-930.92004	1194.80653	-481.53651	-925.81161	1197.85900	-671.00543	-921.77747	1203.32979	-497.68696	-910.86008	1206.20381	-661.19310	
92	0.91000000	-854.26674	818.25938	-450.88446	-877.35599	718.32172	-453.85271	-1143.34999	531.52721	-465.65328	-1204.46487	555.32629	-522.14391	-1116.15834	400.81006	-428.82435	-1063.89318	397.90454	-473.98405	-922.84303	821.24757	-736.24213	-926.18262	722.02526	-727.20122	-1174.62027	494.66374	-721.51792	-1255.30413	511.65338	-671.30032	-1144.07225	369.76185	-748.90978	-1089.18770	364.07690	-695.29053	-956.72540	636.35700	-457.20988	-925.01614	764.42378	-416.00012	-1006.92025	687.74726	-414.05519	-983.09880	781.32773	-764.77237	-1062.45890	688.25579	-766.81629	-830.59146	1098.56902	-417.70269	-808.41821	991.31960	-436.52383	-851.65578	950.72764	-404.30084	-937.81809	1067.94011	-392.95650	-906.73681	957.94664	-415.53898	-838.35961	1064.91094	-745.04186	-832.18725	925.38348	-729.18232	-944.20322	1058.10596	-776.74649	-938.40832	926.16955	-753.32166	-819.16462	1276.19467	-455.03234	-1009.55019	1351.05906	-534.91971	-816.47781	1279.83529	-702.49989	-1003.01996	1353.19351	-632.18065	-872.46564	1782.76063	-563.62172	-807.62363	1772.37225	-425.08394	-791.85553	1759.75210	-685.37349	-758.63838	1693.57432	-529.80412	-756.08464	1694.54367	-575.99732	-710.94125	1727.59833	-368.78170	-610.29898	1537.51785	-305.37906	-599.93882	1588.22629	-253.71767	-544.53467	1648.16549	-300.42457	-447.53489	1701.01574	-424.66438	-415.62914	1684.19559	-391.13354	-694.18673	1724.02464	-738.99220	-567.26951	1559.03277	-777.58156	-556.48684	1622.37153	-830.13802	-513.87180	1669.83103	-788.19375	-410.59948	1727.65058	-661.74763	-380.77469	1723.74992	-703.21469	-917.46582	1208.36078	-480.87593	-911.91909	1211.64287	-670.32874	-908.23128	1216.94853	-496.97686	-897.29043	1220.52581	-659.92721	
93	0.92000000	-836.15420	829.67376	-450.53273	-859.09539	729.83265	-453.44891	-1125.04870	543.15770	-466.24881	-1187.42292	566.79550	-520.46975	-1094.90510	412.63712	-431.52891	-1043.81378	410.83839	-477.92560	-909.69542	834.21821	-736.44968	-913.00762	734.94852	-729.81370	-1160.25068	506.76352	-723.10727	-1237.56975	530.33261	-671.56504	-1140.52718	377.95294	-749.56324	-1084.76340	368.05594	-697.54489	-939.11141	648.49695	-457.11857	-906.60154	776.54256	-415.65327	-988.93558	700.48504	-413.93616	-971.03799	794.67164	-765.13416	-1049.91215	701.18198	-767.26318	-816.71098	1110.07448	-416.01152	-793.12395	1003.03824	-435.09074	-836.29932	961.94021	-403.26085	-923.87438	1078.12255	-392.30309	-891.32060	968.55006	-415.17336	-825.01619	1077.65231	-743.95628	-818.50411	937.91689	-728.45793	-930.59023	1070.75018	-776.42605	-924.60065	938.77045	-753.45035	-807.19086	1289.63247	-454.18720	-997.36763	1363.11910	-534.31734	-804.78921	1293.93445	-700.18470	-991.01492	1365.76867	-631.47474	-863.53453	1794.04952	-563.44517	-800.84345	1784.27224	-424.83382	-784.47040	1772.06709	-684.68374	-749.22745	1705.42709	-529.20077	-746.68913	1706.33754	-575.67773	-704.73970	1740.62626	-366.08836	-606.78113	1549.58996	-298.84842	-596.20566	1600.75399	-248.19269	-538.53689	1659.43802	-294.31321	-440.73815	1710.08336	-419.13410	-409.36570	1693.78290	-385.28636	-685.75620	1736.21558	-739.08656	-559.74834	1570.30250	-781.34928	-549.62913	1633.94750	-833.48615	-505.76855	1681.56227	-793.08859	-401.44814	1739.21034	-667.30719	-372.19269	1734.43494	-708.60667	-905.05785	1221.20327	-479.94994	-899.09171	1224.83849	-669.38391	-895.44515	1229.99119	-496.00270	-884.85419	1234.40853	-657.98768	
94	0.93000000	-817.69072	840.66500	-450.60043	-839.56671	740.80511	-453.79739	-1105.48367	552.68623	-466.40615	-1169.13899	576.83709	-518.93452	-1072.51052	422.15678	-434.73227	-1022.04736	422.57731	-481.60440	-893.18726	845.34287	-737.58352	-897.38660	746.16735	-732.77002	-1146.82357	520.68200	-723.55838	-1219.76128	550.18469	-670.30064	-1137.10867	390.09403	-750.63024	-1080.80895	375.52309	-700.46016	-920.13726	660.04774	-457.21141	-887.20846	787.84556	-416.43977	-969.61804	711.81720	-414.43959	-955.83539	806.80881	-765.85066	-1035.07268	713.58082	-768.45958	-803.59973	1120.65591	-413.97040	-778.28692	1013.89870	-433.60147	-821.34384	972.17082	-402.66680	-910.69993	1087.21305	-391.73349	-876.33568	978.20923	-414.92500	-811.36372	1089.92002	-742.83305	-803.03827	950.12269	-728.05993	-916.56753	1081.89477	-776.12721	-908.99921	949.79594	-753.65978	-795.96263	1301.84283	-453.48586	-985.76025	1374.55244	-533.27435	-794.05043	1307.06028	-697.77035	-979.74078	1377.87358	-630.70069	-853.98394	1804.26391	-563.23764	-793.40960	1795.03558	-424.60938	-776.78605	1783.18049	-684.27872	-739.36830	1715.99341	-528.74288	-736.87971	1716.69191	-575.60838	-698.09448	1752.09859	-363.39387	-602.74945	1560.15186	-293.29855	-592.47449	1611.52698	-242.78158	-532.21742	1668.66968	-288.06224	-433.33123	1717.00355	-413.44155	-402.33985	1700.91977	-379.10401	-676.89066	1746.97388	-739.79265	-552.36364	1580.09696	-784.78642	-542.54575	1643.75839	-837.01821	-497.47076	1691.39019	-798.35197	-391.28677	1748.70854	-673.84599	-362.67330	1742.82656	-714.65896	-893.60246	1233.11601	-479.03317	-887.39401	1237.32094	-668.44717	-883.49404	1242.11930	-495.06709	-873.55425	1247.60021	-655.93559	
95	0.94000000	-798.71770	851.04031	-450.86352	-818.84419	751.10213	-454.78922	-1084.92690	559.92522	-466.44318	-1149.12504	585.07303	-518.02879	-1050.47901	429.11190	-437.80069	-999.87760	431.90981	-484.33892	-873.95075	854.79368	-739.18276	-879.95169	756.00742	-735.33076	-1134.78942	537.10963	-723.28563	-1204.18754	570.06343	-668.40437	-1131.81479	406.52206	-752.03832	-1075.25366	388.09716	-703.58406	-899.59242	670.39882	-457.45809	-866.34321	798.13346	-417.81928	-949.10804	722.25929	-414.61009	-937.72885	817.91547	-766.74879	-1018.39520	726.12351	-770.08988	-791.43870	1130.34664	-412.04964	-764.04124	1024.21981	-432.20847	-806.68924	981.66603	-402.15653	-898.09501	1095.09818	-391.39003	-861.61734	986.90461	-414.98889	-797.48882	1101.64588	-741.61984	-785.97119	961.98962	-728.13731	-902.20755	1091.51245	-775.95133	-891.72897	959.37353	-754.40277	-785.41851	1312.74624	-453.05385	-974.66174	1385.16522	-531.98481	-784.09552	1319.03120	-695.54950	-969.17535	1389.17839	-629.79604	-843.83005	1813.34800	-563.12586	-785.15166	1804.44107	-424.43665	-768.47886	1792.89666	-684.29872	-729.44540	1725.32570	-528.76768	-726.74267	1725.72649	-575.51071	-690.86610	1761.84123	-360.30025	-598.37385	1569.00364	-288.38815	-588.64784	1620.68543	-237.54094	-525.70500	1676.08553	-281.82381	-424.95538	1721.80104	-407.32325	-394.42529	1705.73754	-372.61045	-667.61819	1755.96676	-741.09159	-545.00578	1588.49649	-787.93597	-535.30609	1651.87188	-840.69823	-488.86192	1699.29765	-803.32495	-380.16720	1755.68423	-680.52277	-352.49067	1749.24097	-721.40499	-882.91973	1243.92956	-478.22951	-876.70432	1248.86231	-667.62566	-872.27419	1253.26073	-494.21806	-863.31384	1259.81373	-653.93686	
